<svg width="531" height="248" viewBox="0 0 531 248" fill="currentColor" xmlns="http://www.w3.org/2000/svg">
<path d="M33.36 7.19999C25.44 7.19999 12.72 6.72 0 5.52V68.16H2.4L15.36 19.68C17.04 13.68 17.76 12.96 23.76 12.96H34.32V172.56C34.32 179.76 33.84 180 18.72 182.16V187.2H72V182.16C56.88 180 56.4 179.76 56.4 172.56V12.96H66.96C72.96 12.96 73.68 13.68 75.36 19.68L88.32 68.16H90.72V5.52C78 6.72 65.28 7.19999 57.36 7.19999H33.36Z" fill="currentColor"/>
<path d="M99.3525 189.6C123.593 189.6 135.833 165.84 135.833 128.64C135.833 83.76 118.792 60 97.6725 60C73.6725 60 61.4325 83.76 61.4325 120.96C61.4325 165.84 78.4725 189.6 99.3525 189.6ZM102.713 184.56C89.7525 184.56 83.2725 151.44 83.2725 105.12C83.2725 77.76 86.6325 65.04 94.5525 65.04C107.512 65.04 113.993 98.16 113.993 144.48C113.993 171.84 110.632 184.56 102.713 184.56Z" fill="currentColor"/>
<path d="M177.521 189.6C201.761 189.6 214.001 165.84 214.001 128.64C214.001 83.76 196.961 60 175.841 60C151.841 60 139.601 83.76 139.601 120.96C139.601 165.84 156.641 189.6 177.521 189.6ZM180.881 184.56C167.921 184.56 161.441 151.44 161.441 105.12C161.441 77.76 164.801 65.04 172.721 65.04C185.681 65.04 192.161 98.16 192.161 144.48C192.161 171.84 188.801 184.56 180.881 184.56Z" fill="currentColor"/>
<path d="M239.37 172.56V0L207.45 15.12V21.12L211.77 19.44C216.81 17.52 218.97 18.24 218.97 23.04V172.56C218.97 179.76 218.49 180 207.45 182.16V187.2H250.89V182.16C239.85 180 239.37 179.76 239.37 172.56Z" fill="currentColor"/>
<path d="M271.868 189.6C288.908 189.6 300.428 173.52 299.708 154.08C299.228 140.4 294.428 132.48 280.508 117.84C265.388 102 260.108 93.84 260.108 83.76C260.108 75.12 264.188 70.56 269.948 70.56C277.388 70.56 283.388 76.56 297.308 100.8H299.708V67.44C295.628 63.36 287.708 60 279.548 60C260.588 60 247.388 77.04 247.868 96.48C248.348 116.64 257.708 123.6 273.068 140.88C284.588 153.84 287.468 162.24 287.468 169.92C287.468 175.68 285.068 179.04 280.748 179.04C275.468 179.04 269.227 175.2 254.347 148.8H251.947V182.16C258.427 187.2 264.428 189.6 271.868 189.6Z" fill="currentColor"/>
<path d="M374.314 172.56V92.4C374.314 70.56 368.074 60 353.434 60C340.954 60 333.754 67.68 325.114 79.92V0L293.194 15.12V21.12L297.514 19.44C302.554 17.52 304.714 18.24 304.714 23.04V172.56C304.714 179.76 304.234 180 293.194 182.16V187.2H336.634V182.16C325.594 180 325.114 179.76 325.114 172.56V84.96C331.354 79.92 337.354 77.76 342.154 77.76C350.314 77.76 353.914 82.08 353.914 96V172.56C353.914 179.76 353.434 180 342.394 182.16V187.2H385.834V182.16C374.794 180 374.314 179.76 374.314 172.56Z" fill="currentColor"/>
<path d="M414.99 189.6C439.23 189.6 451.47 165.84 451.47 128.64C451.47 83.76 434.43 60 413.31 60C389.31 60 377.07 83.76 377.07 120.96C377.07 165.84 394.11 189.6 414.99 189.6ZM418.35 184.56C405.39 184.56 398.91 151.44 398.91 105.12C398.91 77.76 402.27 65.04 410.19 65.04C423.15 65.04 429.63 98.16 429.63 144.48C429.63 171.84 426.27 184.56 418.35 184.56Z" fill="currentColor"/>
<path d="M474.919 188.16C477.799 188.64 480.919 188.88 484.039 188.88C510.439 188.88 530.119 163.68 530.119 117.36C530.119 80.88 520.999 60 500.119 60C488.119 60 479.719 69.12 474.919 78.24V59.04L442.999 74.16V80.16L447.319 78.48C452.359 76.56 454.519 77.28 454.519 82.08V232.56C454.519 239.76 454.039 240 442.999 242.16V247.2H492.439V242.16C475.399 240 474.919 239.76 474.919 232.56V188.16ZM474.919 84.24C480.199 78.72 484.759 75.84 489.319 75.84C500.359 75.84 508.519 83.52 508.519 128.64C508.519 164.64 501.559 182.88 489.559 182.88C484.519 182.88 480.679 180.72 478.039 174.72C475.399 168.72 474.919 159.12 474.919 134.88V84.24Z" fill="currentColor"/>
</svg>
